<svg width="24" height="24" viewBox="0 0 24 24" fill="none" xmlns="http://www.w3.org/2000/svg">
<path fill-rule="evenodd" clip-rule="evenodd" d="M6.57794 6.57794C8.47296 4.68292 11.5454 4.68292 13.4404 6.57794C15.3355 8.47296 15.3355 11.5454 13.4404 13.4404C11.5454 15.3355 8.47296 15.3355 6.57794 13.4404C4.68292 11.5454 4.68292 8.47296 6.57794 6.57794ZM14.9654 5.05294C12.2282 2.31569 7.7902 2.31569 5.05294 5.05294C2.31569 7.7902 2.31569 12.2282 5.05294 14.9654C7.66196 17.5744 11.8161 17.6967 14.5699 15.3321C14.5746 15.337 14.5794 15.3418 14.5842 15.3467L19.1592 19.9217C19.5803 20.3428 20.263 20.3428 20.6842 19.9217C21.1053 19.5005 21.1053 18.8178 20.6842 18.3967L16.1092 13.8217C16.0648 13.7773 16.0176 13.7377 15.9681 13.7027C17.6472 10.999 17.313 7.40049 14.9654 5.05294Z" fill="#1AA4B7"/>
</svg>
